<?xml version="1.0" encoding="utf-8"?>
<!-- Generator: Adobe Illustrator 23.0.3, SVG Export Plug-In . SVG Version: 6.00 Build 0)  -->
<svg version="1.1" id="Слой_1" xmlns="http://www.w3.org/2000/svg" xmlns:xlink="http://www.w3.org/1999/xlink" x="0px" y="0px"
	 viewBox="0 0 32 32" style="enable-background:new 0 0 32 32;" xml:space="preserve">

<g id="Symbol_40_4" transform="translate(416.33 -116.96)">
	<path fill="#31d816" id="Union_2" class="st0" d="M-408.3,139.5L-408.3,139.5h-2.5c-0.5,0-1-0.4-1-1v-0.8h-1.9c-0.2,0-0.4-0.1-0.4-0.4V137
		c0-0.2,0.1-0.4,0.3-0.4l0,0h5c0.2,0,0.4,0.1,0.4,0.4l0,0v0.3c0,0.2-0.1,0.4-0.4,0.4h-2.2v0.8l0,0l0,0h2.7c0.4-1.2,1.6-2,2.8-2
		c1.3,0,2.4,0.8,2.8,2h8.5v-6.2v-0.1v-7.4c0-0.3-0.2-0.5-0.5-0.5h-16c-0.3,0-0.5,0.2-0.5,0.5v8.1h0.3c0.2,0,0.4,0.1,0.4,0.4l0,0v0.3
		c0,0.2-0.1,0.4-0.4,0.4h-5c-0.2,0-0.4-0.1-0.4-0.3l0,0v-0.3c0-0.2,0.1-0.4,0.4-0.4l0,0h3.8v-8.6c0-0.2,0.1-0.5,0.3-0.7
		c0.2-0.2,0.4-0.3,0.7-0.3h6.7h4.9h5.3c0.5,0,1,0.4,1,1v1h4.1c0.5,0,1,0.2,1.4,0.5c0.4,0.4,0.6,0.9,0.6,1.4v0.5
		c0,0.2-0.1,0.4-0.3,0.5l1,2.9c1.2,0.2,1.9,1.7,1.9,2.9v5c0,0.3-0.2,0.5-0.5,0.5h-1.5l0,0c0,0.9-0.3,1.7-0.9,2.3
		c-0.7,0.5-1.4,0.8-2.5,0.7c-1.5-0.2-2.6-1.5-2.6-3l0,0l0,0h-9.9l0,0c0,1.8-1.3,3.1-3,3C-407.1,142.5-408.3,141.1-408.3,139.5z
		 M-391.6,139.5c0,1.2,1,2.2,2.2,2.2l0,0l0,0c1.4,0.1,2.1-1.4,2.1-2.2c0-1.2-0.9-2.1-2.1-2.1C-390.5,137.4-391.6,138.3-391.6,139.5
		L-391.6,139.5z M-407.4,139.5c0,1.2,0.9,2.2,2,2.2l0,0c0.6,0,1.2-0.2,1.6-0.6c0.4-0.4,0.6-1,0.5-1.6c0-1.2-0.9-2.1-2.1-2.1l0,0
		C-406.5,137.4-407.4,138.3-407.4,139.5L-407.4,139.5z M-392.4,139.4L-392.4,139.4z M-386.6,138.5h1.2v-2.1h-0.5
		c-0.8,0-1.5-0.7-1.5-1.5l0,0v-1c0-0.3,0.2-0.5,0.5-0.5h1.5c0-1-0.5-1.5-1.4-1.5h-6.2v1v0.1v5.5h0.7c0.4-1.2,1.6-2,2.8-2
		C-388.2,136.5-387,137.3-386.6,138.5L-386.6,138.5z M-386.4,134.9c0,0.3,0.2,0.5,0.5,0.5l0,0h0.5v-1.1h-1.1v0.6H-386.4z M-393,131
		h5.8l-1-2.9h-4.8V131z M-388.9,126.2h-4.1v1h5.1l0,0c0-0.3-0.1-0.5-0.3-0.7C-388.4,126.3-388.6,126.2-388.9,126.2L-388.9,126.2z
		 M-414.8,135.8c-0.2,0-0.4-0.2-0.4-0.4l0,0v-0.2c0-0.2,0.1-0.4,0.4-0.4l0,0h5c0.2,0,0.4,0.1,0.4,0.4l0,0v0.2c0,0.2-0.1,0.4-0.4,0.4
		l0,0H-414.8L-414.8,135.8z"/>
</g>
</svg>
