<svg id="Слой_1" data-name="Слой 1" xmlns="http://www.w3.org/2000/svg" viewBox="0 0 80 70">
  <defs></defs>
  <title>partial-buyback-2</title>
  <path class="cls-1" fill="#31d816"
    d="M60.3,27.24l-1.08-.64c-.65-.44-1.08-.22-1.51.43l-1.3,2.37A18.5,18.5,0,0,0,38.72,16.24a17,17,0,0,0-8.2,1.94A18.06,18.06,0,0,0,21.45,29a.9.9,0,0,0,.65,1.29l1.08.44a1,1,0,0,0,1.29-.65A15.38,15.38,0,0,1,38.93,19.47a13,13,0,0,1,4.75.87,14.81,14.81,0,0,1,9.93,10.79l-3-1.51c-.87-.43-1.08,0-1.3.43l-.43.86c-.43.65,0,1.08.43,1.3l6.48,3.23c.64.22,1.07.22,1.29-.43l3.45-6.47C61.16,27.67,60.73,27.46,60.3,27.24Z" />
  <path class="cls-1" fill="#31d816"
    d="M57.71,39.54,56.2,38.9a1,1,0,0,0-1.3.64,15.13,15.13,0,0,1-19.2,9.71,14.77,14.77,0,0,1-9.93-10.79L28.57,40a1,1,0,0,0,1.51-.22l.65-1.08a1,1,0,0,0-.43-1.29l-6.47-3.24a1.33,1.33,0,0,0-1.51.43l-3.24,6.47a.9.9,0,0,0,.43,1.3l.86.65a1,1,0,0,0,1.3-.44L23,40.19a18.51,18.51,0,0,0,22.88,12.3A17.85,17.85,0,0,0,57.92,40.41C58.35,40.19,58.14,39.76,57.71,39.54Z" />
  <path class="cls-1" fill="#31d816"
    d="M39.8.48A34.32,34.32,0,1,0,74.11,34.8,34.27,34.27,0,0,0,39.8.48Zm0,65.39A31.08,31.08,0,1,1,70.87,34.8,31.23,31.23,0,0,1,39.8,65.87Z" />
</svg>