<?xml version="1.0" encoding="utf-8"?>
<!-- Generator: Adobe Illustrator 23.0.6, SVG Export Plug-In . SVG Version: 6.00 Build 0)  -->
<svg version="1.1" id="Layer_1" xmlns="http://www.w3.org/2000/svg" xmlns:xlink="http://www.w3.org/1999/xlink" x="0px" y="0px"
	 viewBox="0 0 85.3 82.1" style="enable-background:new 0 0 85.3 82.1;" xml:space="preserve">
<style type="text/css">
	.st0{fill:#2F9A41;}
</style>
<g>
	<path class="st0" d="M78.4,16c-0.9-1.3-1.8-2.5-2.7-3.8L26,40.7L2,26.9c-0.6,1.5-0.9,3-1,4.6l25.2,14.6L78.4,16z"/>
	<path class="st0" d="M26,51.4L0.2,36.6C0,37.6,0,38.5,0,39.4C0,63,19.1,82.1,42.7,82.1S85.3,63,85.3,39.4c0-6.8-1.5-13.4-4.6-19.4
		L26,51.4z"/>
	<path class="st0" d="M72.3,8.5c-1.2-1.1-2.5-2.2-3.8-3.2L26,29.9L5.6,18.3c-0.7,1.3-1.4,2.7-2.2,4.2l22.4,13L72.3,8.5z"/>
	<path class="st0" d="M64.3,2.5c-1.6-1-3.3-1.8-5-2.5L26,19.2l-14.9-8.4c-1,1-2,2.3-3,3.6l17.8,10.2L64.3,2.5z"/>
</g>
</svg>
